<svg width="240" height="72" viewBox="0 0 240 72" fill="none" xmlns="http://www.w3.org/2000/svg">
<path d="M23.952 47.048H11.376L9.36 53H0.768L12.96 19.304H22.464L34.656 53H25.968L23.952 47.048ZM21.84 40.712L17.664 28.376L13.536 40.712H21.84ZM48.5426 25.832C50.4306 25.832 52.0786 26.216 53.4866 26.984C54.9266 27.752 56.0306 28.76 56.7986 30.008V26.216H65.0066V52.952C65.0066 55.416 64.5106 57.64 63.5186 59.624C62.5586 61.64 61.0706 63.24 59.0546 64.424C57.0706 65.608 54.5906 66.2 51.6146 66.2C47.6466 66.2 44.4306 65.256 41.9666 63.368C39.5026 61.512 38.0946 58.984 37.7426 55.784H45.8546C46.1106 56.808 46.7186 57.608 47.6786 58.184C48.6386 58.792 49.8226 59.096 51.2306 59.096C52.9266 59.096 54.2706 58.6 55.2626 57.608C56.2866 56.648 56.7986 55.096 56.7986 52.952V49.16C55.9986 50.408 54.8946 51.432 53.4866 52.232C52.0786 53 50.4306 53.384 48.5426 53.384C46.3346 53.384 44.3346 52.824 42.5426 51.704C40.7506 50.552 39.3266 48.936 38.2706 46.856C37.2466 44.744 36.7346 42.312 36.7346 39.56C36.7346 36.808 37.2466 34.392 38.2706 32.312C39.3266 30.232 40.7506 28.632 42.5426 27.512C44.3346 26.392 46.3346 25.832 48.5426 25.832ZM56.7986 39.608C56.7986 37.56 56.2226 35.944 55.0706 34.76C53.9506 33.576 52.5746 32.984 50.9426 32.984C49.3106 32.984 47.9186 33.576 46.7666 34.76C45.6466 35.912 45.0866 37.512 45.0866 39.56C45.0866 41.608 45.6466 43.24 46.7666 44.456C47.9186 45.64 49.3106 46.232 50.9426 46.232C52.5746 46.232 53.9506 45.64 55.0706 44.456C56.2226 43.272 56.7986 41.656 56.7986 39.608ZM79.1528 30.68C80.1128 29.208 81.3128 28.056 82.7528 27.224C84.1928 26.36 85.7928 25.928 87.5528 25.928V34.616H85.2968C83.2488 34.616 81.7128 35.064 80.6888 35.96C79.6648 36.824 79.1528 38.36 79.1528 40.568V53H70.9448V26.216H79.1528V30.68ZM103.668 53.384C101.044 53.384 98.676 52.824 96.564 51.704C94.484 50.584 92.836 48.984 91.62 46.904C90.436 44.824 89.844 42.392 89.844 39.608C89.844 36.856 90.452 34.44 91.668 32.36C92.884 30.248 94.548 28.632 96.66 27.512C98.772 26.392 101.14 25.832 103.764 25.832C106.388 25.832 108.756 26.392 110.868 27.512C112.98 28.632 114.644 30.248 115.86 32.36C117.076 34.44 117.684 36.856 117.684 39.608C117.684 42.36 117.06 44.792 115.812 46.904C114.596 48.984 112.916 50.584 110.772 51.704C108.66 52.824 106.292 53.384 103.668 53.384ZM103.668 46.28C105.236 46.28 106.564 45.704 107.652 44.552C108.772 43.4 109.332 41.752 109.332 39.608C109.332 37.464 108.788 35.816 107.7 34.664C106.644 33.512 105.332 32.936 103.764 32.936C102.164 32.936 100.836 33.512 99.78 34.664C98.724 35.784 98.196 37.432 98.196 39.608C98.196 41.752 98.708 43.4 99.732 44.552C100.788 45.704 102.1 46.28 103.668 46.28Z" fill="#F9C623"/>
<path d="M147.216 19.304V25.88H138.288V53H130.08V25.88H121.152V19.304H147.216ZM176.583 39.176C176.583 39.944 176.535 40.744 176.439 41.576H157.863C157.991 43.24 158.519 44.52 159.447 45.416C160.407 46.28 161.575 46.712 162.951 46.712C164.999 46.712 166.423 45.848 167.223 44.12H175.959C175.511 45.88 174.695 47.464 173.511 48.872C172.359 50.28 170.903 51.384 169.143 52.184C167.383 52.984 165.415 53.384 163.239 53.384C160.615 53.384 158.279 52.824 156.231 51.704C154.183 50.584 152.583 48.984 151.431 46.904C150.279 44.824 149.703 42.392 149.703 39.608C149.703 36.824 150.263 34.392 151.383 32.312C152.535 30.232 154.135 28.632 156.183 27.512C158.231 26.392 160.583 25.832 163.239 25.832C165.831 25.832 168.135 26.376 170.151 27.464C172.167 28.552 173.735 30.104 174.855 32.12C176.007 34.136 176.583 36.488 176.583 39.176ZM168.183 37.016C168.183 35.608 167.703 34.488 166.743 33.656C165.783 32.824 164.583 32.408 163.143 32.408C161.767 32.408 160.599 32.808 159.639 33.608C158.711 34.408 158.135 35.544 157.911 37.016H168.183ZM179.282 39.608C179.282 36.824 179.842 34.392 180.962 32.312C182.114 30.232 183.698 28.632 185.714 27.512C187.762 26.392 190.098 25.832 192.722 25.832C196.082 25.832 198.882 26.712 201.122 28.472C203.394 30.232 204.882 32.712 205.586 35.912H196.85C196.114 33.864 194.69 32.84 192.578 32.84C191.074 32.84 189.874 33.432 188.978 34.616C188.082 35.768 187.634 37.432 187.634 39.608C187.634 41.784 188.082 43.464 188.978 44.648C189.874 45.8 191.074 46.376 192.578 46.376C194.69 46.376 196.114 45.352 196.85 43.304H205.586C204.882 46.44 203.394 48.904 201.122 50.696C198.85 52.488 196.05 53.384 192.722 53.384C190.098 53.384 187.762 52.824 185.714 51.704C183.698 50.584 182.114 48.984 180.962 46.904C179.842 44.824 179.282 42.392 179.282 39.608ZM226.44 25.928C229.512 25.928 231.976 26.952 233.832 29C235.688 31.016 236.616 33.8 236.616 37.352V53H228.456V38.456C228.456 36.664 227.992 35.272 227.064 34.28C226.136 33.288 224.888 32.792 223.32 32.792C221.752 32.792 220.504 33.288 219.576 34.28C218.648 35.272 218.184 36.664 218.184 38.456V53H209.976V17.48H218.184V29.816C219.016 28.632 220.152 27.688 221.592 26.984C223.032 26.28 224.648 25.928 226.44 25.928Z" fill="#43AF6D"/>
</svg>
